<?xml version="1.0" encoding="UTF-8"?>
<svg width="28px" height="28px" viewBox="0 0 28 28" version="1.1" xmlns="http://www.w3.org/2000/svg" xmlns:xlink="http://www.w3.org/1999/xlink">
    <title>编组 29</title>
    <g id="思维导图" stroke="none" stroke-width="1" fill="none" fill-rule="evenodd">
        <g id="图标属性" transform="translate(-1746.000000, -388.000000)">
            <g id="编组-31" transform="translate(1538.000000, 388.000000)">
                <g id="编组-29" transform="translate(208.000000, 0.000000)">
                    <circle id="椭圆形备份-7" fill="#11B0E8" cx="14" cy="14" r="14"></circle>
                    <path d="M14.5462005,3.5 C14.822464,3.49374434 15.1083646,3.67042448 15.4039023,4.03020949 C15.7122895,4.40284397 16.0656497,4.84293813 16.4639831,5.35049199 C16.8623165,5.85804584 17.2734994,6.38487389 17.6975318,6.93097614 C18.1215641,7.47707839 18.5423841,8.01354354 18.9599917,8.54037159 C19.3775993,9.06719965 19.7470214,9.53620511 20.068258,9.94738798 C20.428043,10.3971192 20.5629624,10.7665414 20.4730161,11.0556543 C20.3830699,11.3447673 20.1068064,11.482899 19.6442257,11.4700495 L18.6226932,11.4700495 C18.4299512,11.4700495 18.2404216,11.4732619 18.0541044,11.4796866 C17.8677872,11.4861114 17.6975318,11.4893237 17.5433382,11.4893237 C17.2221016,11.4893237 17.0197225,11.5856947 16.936201,11.7784367 C16.8526794,11.9711787 16.8109187,12.2345927 16.8109187,12.5686788 L16.810132,12.916401 C16.8088208,13.2297706 16.8058707,13.6021429 16.8012816,14.0335177 L16.8,14.1748396 L16.8012816,14.316641 C16.8058707,14.7480159 16.8088208,15.1203881 16.810132,15.4337577 L16.8109187,15.78148 C16.8109187,16.1155661 16.8526794,16.3789801 16.936201,16.5717221 C17.0197225,16.764464 17.2221016,16.860835 17.5433382,16.860835 C17.6975318,16.860835 17.8677872,16.8640474 18.0541044,16.8704721 C18.2404216,16.8768969 18.4299512,16.8801092 18.6226932,16.8801092 L18.6226932,16.8801092 L19.6442257,16.8801092 C20.1068064,16.8672598 20.3830699,17.0053915 20.4730161,17.2945045 C20.5629624,17.5836174 20.428043,17.9530395 20.068258,18.4027708 C19.7470214,18.8139537 19.3775993,19.2829591 18.9599917,19.8097872 C18.5423841,20.3366152 18.1215641,20.8730804 17.6975318,21.4191826 C17.2734994,21.9652849 16.8623165,22.4921129 16.4639831,22.9996668 C16.0656497,23.5072206 15.7122895,23.9473148 15.4039023,24.3199493 C15.1083646,24.6797343 14.822464,24.8564144 14.5462005,24.8501588 C14.269937,24.843565 13.9776117,24.6540354 13.6692246,24.2814009 C13.347988,23.870218 12.9721411,23.4012125 12.541684,22.8743845 C12.111227,22.3475564 11.6743452,21.8078789 11.2310386,21.2553519 C10.7877321,20.702825 10.3540627,20.1695722 9.93003035,19.6555936 C9.50599802,19.141615 9.13978827,18.6918837 8.83140112,18.3063998 C8.52301397,17.9337653 8.42985535,17.6253782 8.55192526,17.3812383 C8.67399518,17.1370985 8.95989577,17.0086039 9.40962703,16.9957544 C9.66661632,16.9957544 9.97179111,16.9861173 10.3251514,16.9668431 C10.6785117,16.9475689 10.9836865,16.9379318 11.2406757,16.9379318 C11.5876113,16.9379318 11.8092646,16.7965877 11.9056355,16.5138995 C11.9564493,16.3648457 11.9920806,16.187213 12.0125293,15.9810014 L12.0116436,16.2211391 C12.0116436,15.5979401 12.014856,14.9908029 12.0212807,14.3997275 L12.0238375,14.1538831 L12.0238375,14.1538831 L12.0212807,13.9504313 C12.014856,13.3593559 12.0116436,12.7522187 12.0116436,12.1290197 L12.0125293,12.3691574 C11.9920806,12.1629458 11.9564493,11.9853131 11.9056355,11.8362593 C11.8092646,11.5535711 11.5876113,11.412227 11.2406757,11.412227 C11.0479338,11.412227 10.8280875,11.4068061 10.5811368,11.3959643 L10.3251514,11.3833157 C9.97179111,11.3640415 9.66661632,11.3544044 9.40962703,11.3544044 C8.95989577,11.3415549 8.67399518,11.2130602 8.55192526,10.9689204 C8.42985535,10.7247806 8.52301397,10.4163934 8.83140112,10.043759 C9.13978827,9.65827502 9.50599802,9.20854376 9.93003035,8.69456517 C10.3540627,8.18058658 10.7877321,7.6473338 11.2310386,7.09480682 C11.6743452,6.54227984 12.111227,6.00260232 12.541684,5.47577427 C12.9721411,4.94894622 13.347988,4.47994075 13.6692246,4.06875788 C13.9776117,3.69612341 14.269937,3.5065938 14.5462005,3.5 Z" id="上下" fill="#FFFFFF" fill-rule="nonzero"></path>
                </g>
            </g>
        </g>
    </g>
</svg>