<?xml version="1.0" encoding="UTF-8"?>
<svg width="28px" height="28px" viewBox="0 0 28 28" version="1.1" xmlns="http://www.w3.org/2000/svg" xmlns:xlink="http://www.w3.org/1999/xlink">
    <title>编组 22</title>
    <g id="思维导图" stroke="none" stroke-width="1" fill="none" fill-rule="evenodd">
        <g id="图标属性" transform="translate(-1538.000000, -388.000000)">
            <g id="编组-22" transform="translate(1538.000000, 388.000000)">
                <circle id="椭圆形" fill="#F9493E" cx="14" cy="14" r="14"></circle>
                <path d="M5.01284946,12.8608374 C5.01284946,12.3211599 5.14455648,11.9581625 5.4079705,11.7718453 C5.67138453,11.5855281 6.08577977,11.4923694 6.65115621,11.4923694 C6.90814551,11.4923694 7.31290364,11.4955818 7.86543062,11.5020065 C8.41795761,11.5084313 9.00582062,11.5116436 9.62901965,11.5116436 C10.2522187,11.5116436 10.8593559,11.514856 11.4504313,11.5212807 C12.0415066,11.5277055 12.5105121,11.5309178 12.8574477,11.5309178 C13.3457273,11.5437673 13.7312113,11.5020065 14.0138995,11.4056355 C14.2965877,11.3092646 14.4379318,11.0876113 14.4379318,10.7406757 C14.4379318,10.4836865 14.4475689,10.1785117 14.4668431,9.82515139 C14.4861173,9.47179111 14.4957544,9.16661632 14.4957544,8.90962703 C14.5086039,8.45989577 14.6370985,8.17399518 14.8812383,8.05192526 C15.1253782,7.92985535 15.4337653,8.02301397 15.8063998,8.33140112 C16.1918837,8.63978827 16.641615,9.00599802 17.1555936,9.43003035 C17.6695722,9.85406268 18.202825,10.2877321 18.7553519,10.7310386 C19.3078789,11.1743452 19.8475564,11.611227 20.3743845,12.041684 C20.9012125,12.4721411 21.370218,12.847988 21.7814009,13.1692246 C22.1540354,13.4776117 22.343565,13.769937 22.3501588,14.0462005 C22.3564144,14.322464 22.1797343,14.6083646 21.8199493,14.9039023 C21.4473148,15.2122895 21.0072206,15.5656497 20.4996668,15.9639831 C19.9921129,16.3623165 19.4652849,16.7734994 18.9191826,17.1975318 C18.3730804,17.6215641 17.8366152,18.0423841 17.3097872,18.4599917 C16.7829591,18.8775993 16.3139537,19.2470214 15.9027708,19.568258 C15.4530395,19.928043 15.0836174,20.0629624 14.7945045,19.9730161 C14.5053915,19.8830699 14.3672598,19.6068064 14.3801092,19.1442257 L14.3801092,18.6816449 L14.3801092,18.1226932 C14.3801092,17.9299512 14.3768969,17.7404216 14.3704721,17.5541044 C14.3640474,17.3677872 14.360835,17.1975318 14.360835,17.0433382 C14.360835,16.7221016 14.264464,16.5197225 14.0717221,16.436201 C13.8789801,16.3526794 13.6155661,16.3109187 13.28148,16.3109187 C12.9088455,16.3109187 12.4205659,16.3077063 11.816641,16.3012816 C11.2127162,16.2948569 10.5830924,16.2916445 9.92776971,16.2916445 C9.27244701,16.2916445 8.63639851,16.2884321 8.0196242,16.2820074 C7.4028499,16.2755827 6.90172077,16.2723703 6.51623683,16.2723703 C6.34919379,16.2723703 6.17572602,16.2563085 5.99583351,16.2241848 C5.81594101,16.1920611 5.65211033,16.1310262 5.50434149,16.0410799 C5.35657265,15.9511337 5.2377151,15.8194267 5.14776884,15.6459589 C5.05782259,15.4724911 5.01284946,15.2379884 5.01284946,14.9424507 C5.01284946,14.5955152 5.0096371,14.2614291 5.00321237,13.9401925 C4.99678763,13.6189558 5,13.2591708 5.01284946,12.8608374 L5.01284946,12.8608374 Z" id="左" fill="#FFFFFF" fill-rule="nonzero" transform="translate(13.675079, 14.000000) scale(-1, 1) translate(-13.675079, -14.000000) "></path>
            </g>
        </g>
    </g>
</svg>