<?xml version="1.0" encoding="UTF-8"?>
<svg width="28px" height="28px" viewBox="0 0 28 28" version="1.1" xmlns="http://www.w3.org/2000/svg" xmlns:xlink="http://www.w3.org/1999/xlink">
    <title>编组 28</title>
    <g id="思维导图" stroke="none" stroke-width="1" fill="none" fill-rule="evenodd">
        <g id="图标属性" transform="translate(-1705.000000, -388.000000)">
            <g id="编组-31" transform="translate(1538.000000, 388.000000)">
                <g id="编组-28" transform="translate(167.000000, 0.000000)">
                    <circle id="椭圆形备份-6" fill="#4ECF55" cx="14" cy="14" r="14"></circle>
                    <path d="M16.7945045,8.02698388 C17.0836174,7.93703762 17.4530395,8.071957 17.9027708,8.43174201 C18.3139537,8.75297863 18.7829591,9.12240074 19.3097872,9.54000834 C19.8366152,9.95761594 20.3730804,10.3784359 20.9191826,10.8024682 C21.4652849,11.2265006 21.9921129,11.6376835 22.4996668,12.0360169 C23.0072206,12.4343503 23.4473148,12.7877105 23.8199493,13.0960977 C24.1797343,13.3916354 24.3564144,13.677536 24.3501588,13.9537995 C24.343565,14.230063 24.1540354,14.5223883 23.7814009,14.8307754 C23.370218,15.152012 22.9012125,15.5278589 22.3743845,15.958316 C21.8475564,16.388773 21.3078789,16.8256548 20.7553519,17.2689614 C20.202825,17.7122679 19.6695722,18.1459373 19.1555936,18.5699697 C18.641615,18.994002 18.1918837,19.3602117 17.8063998,19.6685989 C17.4337653,19.976986 17.1253782,20.0701447 16.8812383,19.9480747 C16.6370985,19.8260048 16.5086039,19.5401042 16.4957544,19.090373 C16.4957544,18.8333837 16.4861173,18.5282089 16.4668431,18.1748486 C16.4475689,17.8214883 16.4379318,17.5163135 16.4379318,17.2593243 C16.4379318,16.9123887 16.2965877,16.6907354 16.0138995,16.5943645 C15.8648457,16.5435507 15.687213,16.5079194 15.4810014,16.4874707 L15.7211391,16.4883564 C15.0979401,16.4883564 14.4908029,16.485144 13.8997275,16.4787193 L13.6748396,16.476 L13.4504313,16.4787193 C13.056381,16.4830024 12.6551922,16.4858579 12.2468647,16.4872856 L11.8691574,16.4874707 C11.6629458,16.5079194 11.4853131,16.5435507 11.3362593,16.5943645 C11.0535711,16.6907354 10.912227,16.9123887 10.912227,17.2593243 C10.912227,17.4520662 10.9068061,17.6719125 10.8959643,17.9188632 L10.8833157,18.1748486 C10.8640415,18.5282089 10.8544044,18.8333837 10.8544044,19.090373 C10.8415549,19.5401042 10.7130602,19.8260048 10.4689204,19.9480747 C10.2247806,20.0701447 9.91639344,19.976986 9.54375896,19.6685989 C9.15827502,19.3602117 8.70854376,18.994002 8.19456517,18.5699697 C7.68058658,18.1459373 7.1473338,17.7122679 6.59480682,17.2689614 C6.04227984,16.8256548 5.50260232,16.388773 4.97577427,15.958316 C4.44894622,15.5278589 3.97994075,15.152012 3.56875788,14.8307754 C3.19612341,14.5223883 3.0065938,14.230063 3,13.9537995 C2.99374434,13.677536 3.17042448,13.3916354 3.53020949,13.0960977 C3.90284397,12.7877105 4.34293813,12.4343503 4.85049199,12.0360169 C5.35804584,11.6376835 5.88487389,11.2265006 6.43097614,10.8024682 C6.97707839,10.3784359 7.51354354,9.95761594 8.04037159,9.54000834 C8.56719965,9.12240074 9.03620511,8.75297863 9.44738798,8.43174201 C9.89711924,8.071957 10.2665414,7.93703762 10.5556543,8.02698388 C10.8447673,8.11693013 10.982899,8.39319362 10.9700495,8.85577435 L10.9700495,9.87730679 C10.9700495,10.0700488 10.9732619,10.2595784 10.9796866,10.4458956 C10.9861114,10.6322128 10.9893237,10.8024682 10.9893237,10.9566618 C10.9893237,11.2778984 11.0856947,11.4802775 11.2784367,11.563799 C11.4711787,11.6473206 11.7345927,11.6890813 12.0686788,11.6890813 L12.416401,11.689868 C12.7297706,11.6911792 13.1021429,11.6941293 13.5335177,11.6987184 L13.6748396,11.699 L13.816641,11.6987184 C14.2480159,11.6941293 14.6203881,11.6911792 14.9337577,11.689868 L15.28148,11.6890813 C15.6155661,11.6890813 15.8789801,11.6473206 16.0717221,11.563799 C16.264464,11.4802775 16.360835,11.2778984 16.360835,10.9566618 C16.360835,10.8024682 16.3640474,10.6322128 16.3704721,10.4458956 C16.3768969,10.2595784 16.3801092,10.0700488 16.3801092,9.87730679 L16.3801092,9.87730679 L16.3801092,8.85577435 C16.3672598,8.39319362 16.5053915,8.11693013 16.7945045,8.02698388 Z" id="左右" fill="#FFFFFF" fill-rule="nonzero"></path>
                </g>
            </g>
        </g>
    </g>
</svg>