<?xml version="1.0" encoding="UTF-8"?>
<svg width="28px" height="28px" viewBox="0 0 28 28" version="1.1" xmlns="http://www.w3.org/2000/svg" xmlns:xlink="http://www.w3.org/1999/xlink">
    <title>编组 30</title>
    <g id="思维导图" stroke="none" stroke-width="1" fill="none" fill-rule="evenodd">
        <g id="图标属性" transform="translate(-1788.000000, -388.000000)">
            <g id="编组-31" transform="translate(1538.000000, 388.000000)">
                <g id="编组-30" transform="translate(250.000000, 0.000000)">
                    <circle id="椭圆形备份-8" fill="#9D9DA0" cx="14" cy="14" r="14"></circle>
                    <path d="M17.0412486,12.0824972 C16.8390933,11.9873653 16.7469342,11.8595318 16.7647715,11.6989967 C16.7826087,11.5384615 16.8509848,11.410628 16.9698997,11.3154961 C17.0055741,11.2917131 17.1215162,11.1995541 17.3177258,11.039019 C17.5139353,10.8784838 17.754738,10.6852471 18.0401338,10.4593088 C17.5406912,9.88851728 16.9461167,9.43961353 16.2564103,9.11259755 C15.5667038,8.78558157 14.8175399,8.62207358 14.0089186,8.62207358 C13.2597547,8.62207358 12.5581568,8.76179859 11.9041249,9.04124861 C11.2500929,9.32069863 10.6793014,9.70419918 10.1917503,10.1917503 C9.70419918,10.6793014 9.32069863,11.2500929 9.04124861,11.9041249 C8.76179859,12.5581568 8.62207358,13.2597547 8.62207358,14.0089186 C8.62207358,14.746191 8.76179859,15.4418432 9.04124861,16.0958751 C9.32069863,16.7499071 9.70419918,17.3206986 10.1917503,17.8082497 C10.6793014,18.2958008 11.2500929,18.6793014 11.9041249,18.9587514 C12.5581568,19.2382014 13.2597547,19.3779264 14.0089186,19.3779264 C14.6272761,19.3779264 15.212932,19.2798216 15.7658863,19.083612 C16.3188406,18.8874025 16.8242289,18.6109253 17.2820513,18.2541806 C17.7398737,17.8974359 18.1322928,17.4782609 18.4593088,16.9966555 C18.7863248,16.5150502 19.0271275,15.9888517 19.1817168,15.4180602 C19.2649573,15.1445559 19.4195466,14.9186176 19.6454849,14.7402453 C19.8714233,14.5618729 20.1389818,14.4726867 20.4481605,14.4726867 C20.8167967,14.4726867 21.1289483,14.6034931 21.3846154,14.8651059 C21.6402824,15.1267187 21.7681159,15.4358974 21.7681159,15.7926421 C21.7681159,15.959123 21.7383872,16.1196581 21.6789298,16.2742475 C21.4292085,17.1066518 21.0605723,17.8736529 20.5730212,18.5752508 C20.0854701,19.2768488 19.5057599,19.8803419 18.8338907,20.3857302 C18.1620216,20.8911185 17.4158305,21.2865106 16.5953177,21.5719064 C15.7748049,21.8573021 14.9126719,22 14.0089186,22 C12.90301,22 11.8625046,21.7918989 10.8874025,21.3756968 C9.91230026,20.9594946 9.06503159,20.3887031 8.34559643,19.6633222 C7.62616128,18.9379413 7.05536975,18.0906726 6.63322185,17.1215162 C6.21107395,16.1523597 6,15.1148272 6,14.0089186 C6,12.90301 6.21107395,11.8625046 6.63322185,10.8874025 C7.05536975,9.91230026 7.62616128,9.06503159 8.34559643,8.34559643 C9.06503159,7.62616128 9.91230026,7.05536975 10.8874025,6.63322185 C11.8625046,6.21107395 12.90301,6 14.0089186,6 C15.2337421,6 16.3693794,6.25269417 17.4158305,6.7580825 C18.4622817,7.26347083 19.3541434,7.95020438 20.0914158,8.81828317 C20.3649201,8.61612783 20.5938313,8.44072835 20.7781494,8.29208473 C20.9624675,8.1434411 21.0784095,8.05128205 21.1259755,8.01560758 C21.1973244,7.95615013 21.2746191,7.91155704 21.3578595,7.88182832 C21.4411,7.85209959 21.5183946,7.85209959 21.5897436,7.88182832 C21.6610925,7.91155704 21.7235229,7.97398737 21.7770346,8.06911929 C21.8305463,8.16425121 21.8691936,8.30694909 21.8929766,8.49721293 C21.9048681,8.60423634 21.9167596,8.78558157 21.9286511,9.04124861 C21.9405425,9.29691564 21.952434,9.5942029 21.9643255,9.93311037 C21.976217,10.2720178 21.9821628,10.6228168 21.9821628,10.9855072 C21.9821628,11.3481977 21.976217,11.690078 21.9643255,12.0111483 C21.952434,12.4154589 21.8573021,12.7068004 21.6789298,12.8851728 C21.5837978,12.9803047 21.4411,13.0338164 21.2508361,13.0457079 C21.0605723,13.0575994 20.8584169,13.0397622 20.6443701,12.9921962 C20.3232999,12.9208473 19.9695281,12.8435526 19.5830546,12.7603122 C19.1965812,12.6770717 18.827945,12.5908584 18.477146,12.5016722 C18.1263471,12.4124861 17.8171683,12.3292456 17.5496098,12.2519509 C17.2820513,12.1746563 17.1125975,12.1181717 17.0412486,12.0824972 Z" id="刷新" fill="#FFFFFF" fill-rule="nonzero"></path>
                </g>
            </g>
        </g>
    </g>
</svg>