<?xml version="1.0" standalone="no"?><!DOCTYPE svg PUBLIC "-//W3C//DTD SVG 1.1//EN" "http://www.w3.org/Graphics/SVG/1.1/DTD/svg11.dtd"><svg t="1646372673433" class="icon" viewBox="0 0 1024 1024" version="1.1" xmlns="http://www.w3.org/2000/svg" p-id="5829" xmlns:xlink="http://www.w3.org/1999/xlink" width="200" height="200"><defs><style type="text/css"></style></defs><path d="M509.074286 0.548571c70.582857 0 136.777143 13.385143 198.4 40.155429a523.008 523.008 0 0 1 161.755428 108.8A509.147429 509.147429 0 0 1 978.651429 311.222857a494.189714 494.189714 0 0 1 40.155428 197.814857c0 70.582857-13.385143 136.704-40.155428 198.4a517.961143 517.961143 0 0 1-109.348572 161.718857 517.961143 517.961143 0 0 1-161.792 109.385143c-61.659429 26.770286-127.780571 40.155429-198.4 40.155429-69.814857 0-135.753143-13.385143-197.814857-40.155429a509.147429 509.147429 0 0 1-161.718857-109.348571 523.008 523.008 0 0 1-108.8-161.755429C13.970286 645.778286 0.585143 579.657143 0.585143 509.074286c0-69.851429 13.385143-135.753143 40.155428-197.851429 26.733714-62.025143 63.012571-115.931429 108.8-161.718857C195.291429 103.716571 249.197714 67.474286 311.222857 40.704a494.189714 494.189714 0 0 1 197.851429-40.155429zM313.6 440.393143c13.165714 6.985143 27.136 7.570286 41.874286 1.755428 14.738286-5.814857 28.342857-13.750857 40.740571-23.844571a335.945143 335.945143 0 0 0 43.044572-44.251429l-230.4-133.778285c10.093714 32.548571 20.955429 62.427429 32.585142 89.6 10.093714 23.259429 21.357714 45.970286 33.755429 68.059428 12.434286 22.125714 25.234286 36.278857 38.4 42.459429z m193.170286 443.355428c20.955429 0 40.521143-4.059429 58.770285-12.214857 18.212571-8.155429 34.304-19.017143 48.274286-32.548571 13.970286-13.604571 24.832-29.696 32.585143-48.310857 7.753143-18.651429 11.629714-38.4 11.629714-59.355429a148.48 148.48 0 0 0-11.629714-58.770286 145.005714 145.005714 0 0 0-32.548571-47.689142 165.522286 165.522286 0 0 0-48.310858-32.585143 142.409143 142.409143 0 0 0-58.770285-12.214857c-20.955429 0-40.557714 4.059429-58.770286 12.214857-18.212571 8.118857-34.121143 19.017143-47.725714 32.548571a157.805714 157.805714 0 0 0-32.548572 47.725714 142.409143 142.409143 0 0 0-12.251428 58.770286c0 20.955429 4.096 40.740571 12.251428 59.355429 8.118857 18.614857 19.017143 34.706286 32.548572 48.274285 13.604571 13.568 29.513143 24.429714 47.725714 32.585143a142.409143 142.409143 0 0 0 58.770286 12.214857z m194.304-443.355428c13.202286-6.217143 26.002286-20.333714 38.4-42.422857 12.434286-22.125714 23.661714-44.836571 33.755428-68.096 11.629714-27.172571 22.491429-57.051429 32.585143-89.6l-230.4 133.814857c14.738286 17.846857 29.110857 32.548571 43.044572 44.214857 12.434286 10.093714 26.002286 18.029714 40.740571 23.844571 14.738286 5.851429 28.708571 5.229714 41.874286-1.755428z" fill="#9D9DA0" p-id="5830"></path></svg>