<?xml version="1.0" standalone="no"?><!DOCTYPE svg PUBLIC "-//W3C//DTD SVG 1.1//EN" "http://www.w3.org/Graphics/SVG/1.1/DTD/svg11.dtd"><svg t="1646372628144" class="icon" viewBox="0 0 1024 1024" version="1.1" xmlns="http://www.w3.org/2000/svg" p-id="5539" xmlns:xlink="http://www.w3.org/1999/xlink" width="200" height="200"><defs><style type="text/css"></style></defs><path d="M511.268571 0.292571c70.509714 0 136.886857 13.458286 199.094858 40.374858 62.171429 26.916571 116.224 63.341714 162.121142 109.238857 45.897143 45.860571 82.285714 99.913143 109.238858 162.121143 26.916571 62.171429 40.374857 128.585143 40.374857 199.094857 0 70.582857-13.458286 136.923429-40.374857 199.131428-26.953143 62.171429-63.341714 116.224-109.238858 162.121143-45.897143 45.897143-99.913143 82.285714-162.121142 109.238857-62.208 26.916571-128.585143 40.374857-199.131429 40.374857-70.546286 0-136.886857-13.458286-199.094857-40.374857-62.171429-26.916571-116.260571-63.341714-162.121143-109.238857-45.897143-45.897143-82.285714-99.913143-109.238857-162.121143C13.860571 648.045714 0.365714 581.668571 0.365714 511.122286c0-70.509714 13.494857-136.886857 40.411429-199.094857 26.916571-62.171429 63.341714-116.260571 109.238857-162.121143 45.860571-45.897143 99.913143-82.285714 162.121143-109.238857C374.308571 13.750857 440.685714 0.292571 511.232 0.292571z m162.669715 230.948572c-11.337143 0-21.796571 2.450286-31.268572 7.387428-9.508571 4.937143-18.029714 11.776-25.6 20.48a94.354286 94.354286 0 0 0-17.664 30.72 109.750857 109.750857 0 0 0-6.217143 36.973715c0 26.550857 7.936 49.334857 23.881143 68.278857 15.908571 18.980571 34.889143 28.452571 56.868572 28.452571 22.016 0 40.96-9.508571 56.905143-28.452571 15.908571-18.944 23.881143-41.691429 23.881142-68.278857 0-12.873143-2.084571-25.234286-6.253714-36.937143a94.354286 94.354286 0 0 0-17.627428-30.72 87.149714 87.149714 0 0 0-25.6-20.48 66.779429 66.779429 0 0 0-31.305143-7.424z m-321.974857 0c-22.016 0-40.777143 9.289143-56.32 27.867428-15.542857 18.578286-23.332571 41.142857-23.332572 67.693715s7.789714 49.334857 23.332572 68.278857c15.542857 18.980571 34.304 28.452571 56.32 28.452571 21.979429 0 40.594286-9.508571 55.734857-28.452571 15.177143-18.944 22.747429-41.691429 22.747428-68.278857 0-26.550857-7.570286-49.115429-22.747428-67.657143-15.177143-18.614857-33.755429-27.904-55.734857-27.904z m162.706285 378.88c-37.924571 0-73.984 3.620571-108.105143 10.825143-34.121143 7.204571-64.841143 17.444571-92.16 30.72-27.318857 13.275429-50.468571 28.635429-69.412571 46.08s-32.219429 36.388571-39.826286 56.868571c-0.731429 0.731429-1.097143 1.536-1.097143 2.267429a32 32 0 0 0-1.170285 9.691428 34.011429 34.011429 0 0 0 2.852571 13.092572c1.901714 4.534857 4.534857 8.704 7.972572 12.507428a22.016 22.016 0 0 0 14.226285 6.838857 324.022857 324.022857 0 0 1 69.376-55.771428c23.515429-14.409143 52.918857-27.501714 88.210286-39.241143 35.254857-11.776 77.531429-17.627429 126.829714-17.627429 50.102857 0 93.330286 5.851429 129.718857 17.627429 36.425143 11.739429 66.742857 24.832 91.026286 39.241143 28.050286 16.676571 51.565714 35.291429 70.546286 55.771428 12.873143-3.803429 20.297143-10.825143 22.198857-21.065142 1.865143-10.24 2.084571-17.261714 0.548571-21.065143a120.32 120.32 0 0 0-3.401142-7.936 8.740571 8.740571 0 0 1-1.133715-3.437715c-19.748571-40.96-56.905143-73.764571-111.542857-98.377142-54.601143-24.685714-119.808-37.010286-195.657143-37.010286z" fill="#9D9DA0" p-id="5540"></path></svg>