<?xml version="1.0" standalone="no"?><!DOCTYPE svg PUBLIC "-//W3C//DTD SVG 1.1//EN" "http://www.w3.org/Graphics/SVG/1.1/DTD/svg11.dtd"><svg t="1646372647958" class="icon" viewBox="0 0 1024 1024" version="1.1" xmlns="http://www.w3.org/2000/svg" p-id="5684" xmlns:xlink="http://www.w3.org/1999/xlink" width="200" height="200"><defs><style type="text/css"></style></defs><path d="M509.074286 0.512c70.582857 0 136.704 13.385143 198.4 40.155429a523.008 523.008 0 0 1 161.718857 108.8 509.147429 509.147429 0 0 1 109.385143 161.755428 494.189714 494.189714 0 0 1 40.155428 197.814857c0 70.582857-13.385143 136.740571-40.155428 198.4a517.961143 517.961143 0 0 1-109.348572 161.755429 517.961143 517.961143 0 0 1-161.755428 109.348571c-61.696 26.770286-127.817143 40.155429-198.4 40.155429-69.851429 0-135.753143-13.385143-197.851429-40.118857a509.147429 509.147429 0 0 1-161.718857-109.385143 523.008 523.008 0 0 1-108.8-161.755429C13.897143 645.778286 0.548571 579.620571 0.548571 509.037714c0-69.851429 13.385143-135.753143 40.155429-197.851428 26.770286-62.025143 63.012571-115.931429 108.8-161.718857C195.254857 103.716571 249.197714 67.437714 311.222857 40.667429A494.189714 494.189714 0 0 1 509.074286 0.512zM215.844571 363.593143h76.8c2.304 21.723429 6.4 39.570286 12.214858 53.504 5.814857 13.970286 12.580571 20.955429 20.333714 20.955428 7.789714 0 14.555429-6.948571 20.370286-20.955428 5.851429-13.933714 9.874286-31.817143 12.214857-53.504h76.8V290.267429H215.844571v73.325714zM725.504 727.771429H289.133714v72.155428h436.370286V727.771429z m73.289143-437.540572h-218.733714v73.325714h76.8c2.304 21.723429 6.4 39.570286 12.214857 53.504 5.814857 13.970286 12.580571 20.955429 20.370285 20.955429 7.753143 0 14.518857-6.948571 20.333715-20.955429 5.851429-13.933714 9.874286-31.817143 12.214857-53.504h76.8V290.267429z" fill="#9D9DA0" p-id="5685"></path></svg>