<?xml version="1.0" standalone="no"?><!DOCTYPE svg PUBLIC "-//W3C//DTD SVG 1.1//EN" "http://www.w3.org/Graphics/SVG/1.1/DTD/svg11.dtd"><svg t="1646372697731" class="icon" viewBox="0 0 1024 1024" version="1.1" xmlns="http://www.w3.org/2000/svg" p-id="5974" xmlns:xlink="http://www.w3.org/1999/xlink" width="200" height="200"><defs><style type="text/css"></style></defs><path d="M510.244571 0.548571c69.851429 0 135.753143 13.385143 197.851429 40.155429 62.025143 26.770286 115.931429 63.012571 161.718857 108.8 45.787429 45.750857 82.029714 99.693714 108.8 161.755429a494.189714 494.189714 0 0 1 40.155429 197.814857c0 70.582857-13.385143 136.704-40.155429 198.4a523.008 523.008 0 0 1-108.8 161.718857 509.147429 509.147429 0 0 1-161.755428 109.385143 494.189714 494.189714 0 0 1-197.814858 40.155428c-70.582857 0-136.704-13.385143-198.4-40.155428a517.961143 517.961143 0 0 1-161.718857-109.348572 517.961143 517.961143 0 0 1-109.385143-161.755428C13.970286 645.778286 0.585143 579.657143 0.585143 509.074286c0-69.851429 13.385143-135.753143 40.155428-197.851429a509.147429 509.147429 0 0 1 109.348572-161.718857 523.008 523.008 0 0 1 161.755428-108.8C373.540571 13.897143 439.661714 0.548571 510.244571 0.548571zM239.177143 350.793143c0 27.172571 7.533714 50.066286 22.674286 68.681143 15.140571 18.614857 33.572571 27.904 55.259428 27.904 21.723429 0 40.338286-9.289143 55.881143-27.904 15.506286-18.651429 23.259429-41.508571 23.259429-68.681143 0-26.331429-7.753143-48.859429-23.259429-67.474286-15.542857-18.651429-34.157714-27.940571-55.881143-27.940571-21.686857 0-40.118857 9.325714-55.222857 27.940571-15.177143 18.651429-22.710857 41.106286-22.710857 67.474286z m268.8 532.955428c20.918857 0 40.521143-4.059429 58.733714-12.214857 18.249143-8.155429 34.157714-19.017143 47.725714-32.548571 13.568-13.604571 24.429714-29.696 32.548572-48.310857 8.192-18.651429 12.251429-38.4 12.251428-59.355429s-4.059429-40.521143-12.214857-58.770286a157.805714 157.805714 0 0 0-32.585143-47.689142 157.805714 157.805714 0 0 0-47.725714-32.585143 142.409143 142.409143 0 0 0-58.733714-12.214857c-20.955429 0-40.557714 4.059429-58.770286 12.214857-18.249143 8.118857-34.340571 19.017143-48.274286 32.548571a145.005714 145.005714 0 0 0-32.621714 47.725714 148.48 148.48 0 0 0-11.629714 58.770286c0 20.955429 3.876571 40.740571 11.629714 59.355429 7.789714 18.614857 18.651429 34.706286 32.585143 48.274285 13.970286 13.568 30.061714 24.429714 48.274286 32.585143a142.409143 142.409143 0 0 0 58.806857 12.214857z m186.148571-438.674285c22.528 0 41.691429-9.325714 57.636572-27.940572 15.872-18.614857 23.844571-41.106286 23.844571-67.474285 0-27.172571-7.972571-50.066286-23.844571-68.681143-15.908571-18.614857-35.108571-27.904-57.6-27.904-22.528 0-41.508571 9.289143-57.051429 27.904-15.506286 18.651429-23.259429 41.508571-23.259428 68.681143 0 26.331429 7.753143 48.859429 23.259428 67.474285 15.542857 18.651429 34.523429 27.940571 57.051429 27.940572z" fill="#9D9DA0" p-id="5975"></path></svg>