<?xml version="1.0" encoding="UTF-8"?>
<svg width="28px" height="28px" viewBox="0 0 28 28" version="1.1" xmlns="http://www.w3.org/2000/svg" xmlns:xlink="http://www.w3.org/1999/xlink">
    <title>惊呆</title>
    <g id="思维导图" stroke="none" stroke-width="1" fill="none" fill-rule="evenodd">
        <g id="图标属性" transform="translate(-1663.000000, -436.000000)" fill="#9D9DA0" fill-rule="nonzero">
            <g id="编组-26" transform="translate(1538.023075, 436.006442)">
                <path d="M138.896634,0.00946756773 C140.826937,0.00946756773 142.63527,0.375376659 144.321634,1.10719484 C146.007997,1.83901302 147.48224,2.83067969 148.744361,4.08219484 C150.006482,5.33370999 151.003452,6.80795242 151.73527,8.50492211 C152.467088,10.2018918 152.832997,12.0049221 152.832997,13.914013 C152.832997,15.8443161 152.467088,17.6526494 151.73527,19.339013 C151.003452,21.0253767 150.006482,22.4996191 148.744361,23.7617403 C147.48224,25.0238615 146.007997,26.0208312 144.321634,26.7526494 C142.63527,27.4844676 140.826937,27.8503767 138.896634,27.8503767 C136.987543,27.8503767 135.184512,27.4844676 133.487543,26.7526494 C131.790573,26.0208312 130.316331,25.0238615 129.064815,23.7617403 C127.8133,22.4996191 126.821634,21.0253767 126.089815,19.339013 C125.357997,17.6526494 124.992088,15.8443161 124.992088,13.914013 C124.992088,12.0049221 125.357997,10.2018918 126.089815,8.50492211 C126.821634,6.80795242 127.8133,5.33370999 129.064815,4.08219484 C130.316331,2.83067969 131.790573,1.83901302 133.487543,1.10719484 C135.184512,0.375376659 136.987543,0.00946756773 138.896634,0.00946756773 Z M133.869361,12.0049221 C134.739058,12.0049221 135.476179,11.7079524 136.080725,11.114013 C136.68527,10.5200736 136.987543,9.78825545 136.987543,8.91855848 C136.987543,8.04886151 136.68527,7.31704333 136.080725,6.72310393 C135.476179,6.12916454 134.739058,5.83219484 133.869361,5.83219484 C133.445118,5.83219484 133.047391,5.91174029 132.676179,6.0708312 C132.304967,6.22992211 131.976179,6.44734636 131.689815,6.72310393 C131.403452,6.99886151 131.180725,7.32764939 131.021634,7.70946757 C130.862543,8.09128575 130.782997,8.49431605 130.782997,8.91855848 C130.782997,9.3428009 130.862543,9.7458312 131.021634,10.1276494 C131.180725,10.5094676 131.403452,10.8382554 131.689815,11.114013 C131.976179,11.3897706 132.304967,11.6071948 132.676179,11.7662857 C133.047391,11.9253767 133.445118,12.0049221 133.869361,12.0049221 L133.869361,12.0049221 Z M143.828452,12.0049221 C144.698149,12.0049221 145.43527,11.7079524 146.039815,11.114013 C146.644361,10.5200736 146.946634,9.78825545 146.946634,8.91855848 C146.946634,8.04886151 146.644361,7.31704333 146.039815,6.72310393 C145.43527,6.12916454 144.698149,5.83219484 143.828452,5.83219484 C143.404209,5.83219484 143.006482,5.91174029 142.63527,6.0708312 C142.264058,6.22992211 141.93527,6.44734636 141.648906,6.72310393 C141.362543,6.99886151 141.139815,7.32764939 140.980725,7.70946757 C140.821634,8.09128575 140.742088,8.49431605 140.742088,8.91855848 C140.742088,9.3428009 140.821634,9.7458312 140.980725,10.1276494 C141.139815,10.5094676 141.362543,10.8382554 141.648906,11.114013 C141.93527,11.3897706 142.264058,11.6071948 142.63527,11.7662857 C143.006482,11.9253767 143.404209,12.0049221 143.828452,12.0049221 L143.828452,12.0049221 Z M133.901179,7.48674029 C134.304209,7.48674029 134.643603,7.62461908 134.919361,7.90037666 C135.195118,8.17613423 135.332997,8.51552817 135.332997,8.91855848 C135.332997,9.32158878 135.195118,9.66628575 134.919361,9.95264939 C134.643603,10.239013 134.304209,10.3821948 133.901179,10.3821948 C133.476937,10.3821948 133.126937,10.239013 132.851179,9.95264939 C132.575422,9.66628575 132.437543,9.32158878 132.437543,8.91855848 C132.437543,8.51552817 132.575422,8.17613423 132.851179,7.90037666 C133.126937,7.62461908 133.476937,7.48674029 133.901179,7.48674029 L133.901179,7.48674029 Z M143.86027,7.32764939 C144.284512,7.32764939 144.655725,7.48143726 144.973906,7.78901302 C145.292088,8.09658878 145.451179,8.47310393 145.451179,8.91855848 C145.451179,9.36401302 145.292088,9.74052817 144.973906,10.0481039 C144.655725,10.3556797 144.284512,10.5094676 143.86027,10.5094676 C143.414815,10.5094676 143.032997,10.3556797 142.714815,10.0481039 C142.396634,9.74052817 142.237543,9.36401302 142.237543,8.91855848 C142.237543,8.47310393 142.396634,8.09658878 142.714815,7.78901302 C143.032997,7.48143726 143.414815,7.32764939 143.86027,7.32764939 Z" id="惊呆"></path>
            </g>
        </g>
    </g>
</svg>