<?xml version="1.0" standalone="no"?><!DOCTYPE svg PUBLIC "-//W3C//DTD SVG 1.1//EN" "http://www.w3.org/Graphics/SVG/1.1/DTD/svg11.dtd"><svg t="1646372598092" class="icon" viewBox="0 0 1024 1024" version="1.1" xmlns="http://www.w3.org/2000/svg" p-id="5394" xmlns:xlink="http://www.w3.org/1999/xlink" width="200" height="200"><defs><style type="text/css"></style></defs><path d="M1020.708571 456.777143C990.866286 176.274286 738.998857-26.843429 458.203429 3.181714 177.334857 33.170286-26.112 284.891429 3.766857 565.394286c29.805714 280.502857 281.673143 483.620571 562.505143 453.632 280.795429-29.988571 484.278857-281.782857 454.436571-562.285715z m-357.595428-154.697143a81.261714 81.261714 0 1 1 0 162.523429 81.261714 81.261714 0 0 1 0-162.523429z m-301.860572 0a81.261714 81.261714 0 1 1 0 162.523429 81.261714 81.261714 0 0 1 0-162.523429z m401.481143 347.574857c-24.795429 110.189714-136.886857 186.441143-250.514285 186.441143-117.76 0-229.302857-78.336-251.611429-190.866286 0-30.427429 23.259429-41.325714 37.558857-41.325714H720.457143c10.386286 0 50.176 3.620571 42.24 45.750857z" fill="#9D9DA0" p-id="5395"></path></svg>