<?xml version="1.0" encoding="UTF-8"?>
<svg width="28px" height="28px" viewBox="0 0 28 28" version="1.1" xmlns="http://www.w3.org/2000/svg" xmlns:xlink="http://www.w3.org/1999/xlink">
    <title>形状</title>
    <g id="思维导图" stroke="none" stroke-width="1" fill="none" fill-rule="evenodd">
        <g id="图标属性" transform="translate(-1746.000000, -436.000000)" fill="#9D9DA0" fill-rule="nonzero">
            <g id="编组-26" transform="translate(1538.023075, 436.006442)">
                <path d="M221.897379,0.00872182909 C223.827682,0.00872182909 225.636016,0.37463092 227.322379,1.1064491 C229.008743,1.83826728 230.482985,2.82993395 231.745107,4.0814491 C233.007228,5.33296425 234.004198,6.80720668 234.736016,8.50417637 C235.467834,10.2011461 235.833743,12.0041764 235.833743,13.9132673 C235.833743,15.8435703 235.467834,17.6519036 234.736016,19.3382673 C234.004198,21.0246309 233.007228,22.4988733 231.745107,23.7609946 C230.482985,25.0231158 229.008743,26.0200855 227.322379,26.7519036 C225.636016,27.4837218 223.827682,27.8496309 221.897379,27.8496309 C219.988288,27.8496309 218.185258,27.4837218 216.488288,26.7519036 C214.791319,26.0200855 213.317076,25.0231158 212.065561,23.7609946 C210.814046,22.4988733 209.822379,21.0246309 209.090561,19.3382673 C208.358743,17.6519036 207.992834,15.8435703 207.992834,13.9132673 C207.992834,12.0041764 208.358743,10.2011461 209.090561,8.50417637 C209.822379,6.80720668 210.814046,5.33296425 212.065561,4.0814491 C213.317076,2.82993395 214.791319,1.83826728 216.488288,1.1064491 C218.185258,0.37463092 219.988288,0.00872182909 221.897379,0.00872182909 Z M226.829198,5.89508547 C226.107985,5.89508547 225.498137,6.19205516 224.999652,6.78599456 C224.501167,7.37993395 224.251925,8.10114607 224.251925,8.94963092 C224.251925,9.81932789 224.501167,10.5511461 224.999652,11.1450855 C225.498137,11.7390249 226.107985,12.0359946 226.829198,12.0359946 C227.55041,12.0359946 228.160258,11.7390249 228.658743,11.1450855 C229.157228,10.5511461 229.40647,9.81932789 229.40647,8.94963092 C229.40647,8.10114607 229.157228,7.37993395 228.658743,6.78599456 C228.160258,6.19205516 227.55041,5.89508547 226.829198,5.89508547 Z M213.879198,11.9087218 L219.861016,11.9087218 L219.861016,9.93599456 L213.879198,9.93599456 L213.879198,11.9087218 Z M229.788288,17.89054 C229.809501,17.8481158 229.820107,17.7738733 229.820107,17.6678127 C229.820107,17.5617521 229.804198,17.4450855 229.772379,17.3178127 C229.740561,17.19054 229.676925,17.0738733 229.58147,16.9678127 C229.486016,16.8617521 229.35344,16.7769036 229.183743,16.7132673 C228.695864,17.3072067 228.091319,17.8375097 227.370107,18.3041764 C226.754955,18.7072067 225.97541,19.0731158 225.03147,19.4019036 C224.087531,19.7306915 222.979198,19.8950855 221.70647,19.8950855 C220.433743,19.8950855 219.351925,19.7306915 218.461016,19.4019036 C217.570107,19.0731158 216.817076,18.7072067 216.201925,18.3041764 C215.501925,17.8375097 214.907985,17.3072067 214.420107,16.7132673 C214.25041,16.7556915 214.123137,16.829934 214.038288,16.9359946 C213.95344,17.0420552 213.889804,17.1587218 213.847379,17.2859946 C213.804955,17.4132673 213.783743,17.529934 213.783743,17.6359946 C213.783743,17.7420552 213.794349,17.8269036 213.815561,17.89054 C213.836773,17.9117521 213.842076,17.9276612 213.83147,17.9382673 C213.820864,17.9488733 213.826167,17.9647824 213.847379,17.9859946 C214.038288,18.5587218 214.377682,19.0943279 214.865561,19.5928127 C215.35344,20.0912976 215.947379,20.5261461 216.647379,20.8973582 C217.347379,21.2685703 218.137531,21.554934 219.017834,21.7564491 C219.898137,21.9579643 220.826167,22.0587218 221.801925,22.0587218 C223.732228,22.0587218 225.397379,21.7087218 226.797379,21.0087218 C228.197379,20.3087218 229.151925,19.3859946 229.661016,18.24054 C229.661016,18.1981158 229.671622,18.1556915 229.692834,18.1132673 C229.714046,18.070843 229.745864,17.9966006 229.788288,17.89054 L229.788288,17.89054 Z" id="形状"></path>
            </g>
        </g>
    </g>
</svg>