<?xml version="1.0" encoding="UTF-8"?>
<svg width="28px" height="28px" viewBox="0 0 28 28" version="1.1" xmlns="http://www.w3.org/2000/svg" xmlns:xlink="http://www.w3.org/1999/xlink">
    <title>编组 19</title>
    <g id="思维导图" stroke="none" stroke-width="1" fill="none" fill-rule="evenodd">
        <g id="图标属性" transform="translate(-1580.000000, -340.000000)">
            <g id="编组-21" transform="translate(1538.000000, 340.000000)">
                <g id="编组-19" transform="translate(42.000000, 0.000000)">
                    <g id="编组-14">
                        <circle id="椭圆形备份-3" fill="#FFB40A" cx="14" cy="14" r="14"></circle>
                        <g id="旗帜备份" transform="translate(7.000000, 7.000000)"></g>
                    </g>
                    <path d="M8.08319982,7 L7.31858818,7 C7.14137351,7 7,7.14310051 7,7.31800114 L7,20.6819989 C7,20.858887 7.14336468,21 7.31858818,21 L8.08319982,21 C8.2604145,21 8.401788,20.8568995 8.401788,20.6819989 L8.401788,7.31998864 C8.40377918,7.14310051 8.2604145,7 8.08319982,7 Z M20.6813712,8.49858035 C16.9180483,11.5295287 13.1547254,4.90914253 9.38941137,7.93810335 C9.21418787,8.07921635 9.07082318,8.36144236 9.07082318,8.53634299 L9.07082318,17.1005111 C9.07082318,17.2773992 9.21418787,17.2793867 9.38941137,17.1382737 C13.1527343,14.1073254 16.9180483,20.729699 20.6813712,17.6987507 C20.8585859,17.5576377 20.9999799,17.2754117 20.9999799,17.1005111 L20.9999799,8.53634299 C21.0019506,8.36144236 20.8585859,8.35746735 20.6813712,8.49858035 Z" id="形状" fill="#FFFFFF" fill-rule="nonzero"></path>
                </g>
            </g>
        </g>
    </g>
</svg>