<?xml version="1.0" encoding="UTF-8"?>
<svg width="28px" height="28px" viewBox="0 0 28 28" version="1.1" xmlns="http://www.w3.org/2000/svg" xmlns:xlink="http://www.w3.org/1999/xlink">
    <title>编组 7</title>
    <g id="思维导图" stroke="none" stroke-width="1" fill="none" fill-rule="evenodd">
        <g id="图标属性" transform="translate(-1621.000000, -292.000000)">
            <g id="编组-12" transform="translate(1538.000000, 292.000000)">
                <g id="编组-7" transform="translate(83.000000, 0.000000)">
                    <circle id="椭圆形备份-4" fill="#287DF8" cx="14" cy="14" r="14"></circle>
                    <path d="M14.06,21.28 C15.62,21.28 16.88,20.84 17.84,19.98 C18.76,19.14 19.22,18.06 19.22,16.74 C19.22,15.9 18.98,15.2 18.5,14.66 C18.06,14.14 17.4,13.76 16.56,13.5 C18.14,12.98 18.94,11.94 18.94,10.38 C18.94,9.14 18.5,8.18 17.64,7.48 C16.76,6.78 15.58,6.44 14.14,6.44 C12.74,6.44 11.58,6.82 10.68,7.62 C9.72,8.42 9.2,9.54 9.08,10.98 L11.38,10.98 C11.46,10.12 11.74,9.48 12.22,9.06 C12.68,8.64 13.32,8.44 14.16,8.44 C14.98,8.44 15.6,8.62 16.02,8.98 C16.4,9.34 16.6,9.86 16.6,10.56 C16.6,11.26 16.38,11.8 15.96,12.16 C15.52,12.52 14.88,12.7 14.04,12.7 L13.04,12.7 L13.04,14.46 L14.04,14.46 C14.96,14.46 15.66,14.64 16.14,15.04 C16.62,15.42 16.88,16.02 16.88,16.84 C16.88,17.52 16.64,18.08 16.18,18.54 C15.66,19.04 14.94,19.3 14.04,19.3 C13.22,19.3 12.56,19.06 12.06,18.6 C11.5,18.1 11.22,17.38 11.18,16.46 L8.8,16.46 C8.92,18.06 9.48,19.3 10.48,20.14 C11.38,20.9 12.58,21.28 14.06,21.28 Z" id="3" fill="#FFFFFF" fill-rule="nonzero"></path>
                </g>
            </g>
        </g>
    </g>
</svg>