<?xml version="1.0" standalone="no"?><!DOCTYPE svg PUBLIC "-//W3C//DTD SVG 1.1//EN" "http://www.w3.org/Graphics/SVG/1.1/DTD/svg11.dtd"><svg t="1646372924446" class="icon" viewBox="0 0 1024 1024" version="1.1" xmlns="http://www.w3.org/2000/svg" p-id="6411" xmlns:xlink="http://www.w3.org/1999/xlink" width="200" height="200"><defs><style type="text/css"></style></defs><path d="M512 512m-512 0a512 512 0 1 0 1024 0 512 512 0 1 0-1024 0Z" fill="#11B0E8" p-id="6412"></path><path d="M518.582857 778.24c51.931429 0 95.817143-17.554286 130.925714-51.2 35.108571-33.645714 53.394286-76.8 53.394286-129.462857 0-51.2-15.36-93.622857-46.08-126.537143-30.72-32.914286-71.68-49.005714-122.88-49.005714-26.331429 0-49.737143 4.388571-70.217143 14.628571-21.942857 10.24-40.228571 25.6-54.857143 47.542857h-3.657142v-6.582857c0-48.274286 9.508571-88.502857 29.988571-120.685714 20.48-34.377143 48.274286-51.2 83.382857-51.2 49.737143 0 80.457143 24.137143 90.697143 72.411428h83.382857c-13.165714-95.085714-70.948571-142.628571-173.348571-142.628571-60.708571 0-108.982857 26.331429-144.091429 78.994286-35.84 52.662857-53.394286 121.417143-53.394286 206.994285 0 79.725714 16.091429 141.897143 49.737143 187.245715 33.645714 46.08 82.651429 69.485714 147.017143 69.485714z m-2.925714-70.948571c-29.988571 0-54.125714-9.508571-73.142857-28.525715s-28.525714-45.348571-28.525715-78.262857c0-33.645714 8.777143-60.708571 27.062858-79.725714 17.554286-19.748571 42.422857-29.257143 74.605714-29.257143 31.451429 0 56.32 9.508571 75.337143 29.257143 17.554286 19.017143 27.062857 44.617143 27.062857 76.8 0 32.182857-9.508571 58.514286-28.525714 78.994286s-43.154286 30.72-73.874286 30.72z" fill="#FFFFFF" p-id="6413"></path></svg>