<?xml version="1.0" standalone="no"?><!DOCTYPE svg PUBLIC "-//W3C//DTD SVG 1.1//EN" "http://www.w3.org/Graphics/SVG/1.1/DTD/svg11.dtd"><svg t="1646372917529" class="icon" viewBox="0 0 1024 1024" version="1.1" xmlns="http://www.w3.org/2000/svg" p-id="6265" xmlns:xlink="http://www.w3.org/1999/xlink" width="200" height="200"><defs><style type="text/css"></style></defs><path d="M512 512m-512 0a512 512 0 1 0 1024 0 512 512 0 1 0-1024 0Z" fill="#4ECF55" p-id="6266"></path><path d="M506.148571 778.24c51.931429 0 96.548571-15.36 134.582858-46.08 40.96-34.377143 61.44-78.262857 61.44-132.388571 0-56.32-16.091429-100.937143-46.811429-133.12-30.72-32.182857-70.948571-48.274286-119.954286-48.274286-23.405714 0-44.617143 3.657143-63.634285 10.971428-21.211429 7.314286-39.497143 19.017143-55.588572 35.108572h-2.194286l14.628572-143.36h249.417143V245.76h-318.171429l-28.525714 294.034286h79.725714c10.24-18.285714 24.137143-31.451429 42.422857-40.228572 16.091429-8.045714 35.84-11.702857 58.514286-11.702857 33.645714 0 59.977143 9.508571 77.531429 29.988572 17.554286 19.748571 27.062857 47.542857 27.062857 82.651428 0 32.182857-10.971429 57.782857-31.451429 76.8-21.211429 19.017143-47.542857 28.525714-78.262857 28.525714-28.525714 0-51.2-6.582857-67.291429-18.285714-19.017143-13.897143-29.988571-35.108571-33.645714-63.634286H321.828571c3.657143 48.274286 24.137143 87.04 62.171429 115.565715 33.645714 25.6 74.605714 38.765714 122.148571 38.765714z" fill="#FFFFFF" p-id="6267"></path></svg>