<?xml version="1.0" encoding="UTF-8"?>
<svg width="28px" height="28px" viewBox="0 0 28 28" version="1.1" xmlns="http://www.w3.org/2000/svg" xmlns:xlink="http://www.w3.org/1999/xlink">
    <title>编组 6</title>
    <g id="思维导图" stroke="none" stroke-width="1" fill="none" fill-rule="evenodd">
        <g id="图标属性" transform="translate(-1580.000000, -292.000000)">
            <g id="编组-12" transform="translate(1538.000000, 292.000000)">
                <g id="编组-6" transform="translate(42.000000, 0.000000)">
                    <circle id="椭圆形备份-3" fill="#FFB40A" cx="14" cy="14" r="14"></circle>
                    <path d="M18.98,21 L18.98,18.94 L11.94,18.94 C12.26,18.22 13.14,17.38 14.6,16.42 C16,15.48 17,14.72 17.56,14.12 C18.48,13.1 18.96,11.98 18.96,10.74 C18.96,9.46 18.52,8.44 17.64,7.64 C16.74,6.84 15.6,6.44 14.22,6.44 C12.68,6.44 11.44,6.96 10.5,8 C9.58,8.98 9.12,10.26 9.1,11.86 L11.44,11.86 C11.48,10.74 11.72,9.88 12.16,9.32 C12.6,8.72 13.26,8.42 14.14,8.42 C14.96,8.42 15.58,8.6 16,8.98 C16.4,9.36 16.62,9.94 16.62,10.72 C16.62,11.52 16.3,12.28 15.68,12.98 C15.28,13.4 14.64,13.94 13.72,14.58 C12.06,15.72 10.96,16.6 10.44,17.2 C9.48,18.28 9.02,19.54 9.02,21 L18.98,21 Z" id="2" fill="#FFFFFF" fill-rule="nonzero"></path>
                </g>
            </g>
        </g>
    </g>
</svg>