<?xml version="1.0" encoding="UTF-8"?>
<svg width="28px" height="28px" viewBox="0 0 28 28" version="1.1" xmlns="http://www.w3.org/2000/svg" xmlns:xlink="http://www.w3.org/1999/xlink">
    <title>星星</title>
    <g id="思维导图" stroke="none" stroke-width="1" fill="none" fill-rule="evenodd">
        <g id="图标属性" transform="translate(-1580.000000, -485.000000)" fill="#9D9DA0">
            <g id="编组-24" transform="translate(1538.000000, 485.000000)">
                <path d="M56,0 C63.7319865,0 70,6.2680135 70,14 C70,21.7319865 63.7319865,28 56,28 C48.2680135,28 42,21.7319865 42,14 C42,6.2680135 48.2680135,0 56,0 Z M55.7944101,6 C55.0931114,6 54.4697348,6.38961039 54.1580464,7.02272728 L54.1580464,7.02272728 L52.979475,9.41883117 C52.8333711,9.72077922 52.5411633,9.93506492 52.2002542,9.98376622 L52.2002542,9.98376622 L49.5606438,10.3636364 C48.8690854,10.461039 48.3041503,10.9383117 48.0898646,11.6006493 C47.8755789,12.262987 48.0509036,12.974026 48.5476568,13.461039 L48.5476568,13.461039 L50.466488,15.3311688 C50.7099945,15.5649351 50.8268776,15.9058442 50.7684361,16.2467532 L50.7684361,16.2467532 L50.3203841,18.8766234 C50.203501,19.5584416 50.4762283,20.2402597 51.0411633,20.6493507 C51.3528517,20.8831169 51.7229815,21 52.1028516,21 C52.3853192,21 52.677527,20.9318182 52.9502542,20.7954546 L52.9502542,20.7954546 L55.3171374,19.5487013 C55.6190854,19.3928571 55.979475,19.3928571 56.2814231,19.5487013 L56.2814231,19.5487013 L58.6483062,20.7662338 C59.2619426,21.0876623 59.992462,21.038961 60.5573971,20.6298701 C61.1223322,20.2207792 61.3950595,19.5487013 61.2781763,18.8571429 L61.2781763,18.8571429 L60.8301244,16.2272727 C60.7716828,15.8961039 60.8885659,15.5454546 61.1320724,15.3116883 L61.1320724,15.3116883 L63.0411633,13.4512987 C63.5379166,12.9642857 63.7132413,12.2532468 63.4989555,11.5909091 C63.2846698,10.9285714 62.7197348,10.4512987 62.0281763,10.3538961 L62.0281763,10.3538961 L59.3885659,9.97402596 C59.0573971,9.92532468 58.7651893,9.71103896 58.6093451,9.40909091 L58.6093451,9.40909091 L57.4210335,7.01298702 C57.1190854,6.38961039 56.4957088,6 55.7944101,6 Z" id="星星"></path>
            </g>
        </g>
    </g>
</svg>