<?xml version="1.0" encoding="UTF-8"?>
<svg width="28px" height="28px" viewBox="0 0 28 28" version="1.1" xmlns="http://www.w3.org/2000/svg" xmlns:xlink="http://www.w3.org/1999/xlink">
    <title>提醒</title>
    <g id="思维导图" stroke="none" stroke-width="1" fill="none" fill-rule="evenodd">
        <g id="图标属性" transform="translate(-1621.000000, -485.000000)" fill="#9D9DA0">
            <g id="编组-24" transform="translate(1538.000000, 485.000000)">
                <path d="M97,0 C104.731986,0 111,6.2680135 111,14 C111,21.7319865 104.731986,28 97,28 C89.2680135,28 83,21.7319865 83,14 C83,6.2680135 89.2680135,0 97,0 Z M98.625214,20.3240582 L95.4145976,20.3240582 C95.4145976,21.2230308 96.1209332,21.9293664 97.0199058,21.9293664 C97.9188784,21.9293664 98.625214,21.2230308 98.625214,20.3240582 Z M97.0199058,7 C96.0888271,7 95.3503853,7.70633562 95.2540668,8.60530822 C93.3276969,9.34375 92.0434503,11.2059075 92.0434503,13.2607021 L92.0434503,16.375 L91.0802654,18.5582192 C90.9518408,18.8471747 90.9839469,19.1682363 91.1444777,19.4250856 C91.3050086,19.6819349 91.593964,19.8424658 91.9150257,19.8424658 L102.124786,19.8424658 C102.445848,19.8424658 102.734803,19.6819349 102.895334,19.4250856 C103.055865,19.1682363 103.087971,18.8150685 102.959546,18.5582192 L101.996361,16.375 L101.996361,13.2607021 C101.996361,11.2059075 100.680009,9.34375 98.7857449,8.60530822 C98.7215325,7.70633562 97.9509846,7 97.0199058,7 Z" id="提醒"></path>
            </g>
        </g>
    </g>
</svg>