<?xml version="1.0" encoding="UTF-8"?>
<svg width="28px" height="28px" viewBox="0 0 28 28" version="1.1" xmlns="http://www.w3.org/2000/svg" xmlns:xlink="http://www.w3.org/1999/xlink">
    <title>点赞</title>
    <g id="思维导图" stroke="none" stroke-width="1" fill="none" fill-rule="evenodd">
        <g id="图标属性" transform="translate(-1663.000000, -485.000000)" fill="#9D9DA0">
            <g id="编组-24" transform="translate(1538.000000, 485.000000)">
                <path d="M139,0 C146.731986,0 153,6.2680135 153,14 C153,21.7319865 146.731986,28 139,28 C131.268014,28 125,21.7319865 125,14 C125,6.2680135 131.268014,0 139,0 Z M132.174665,11.8189174 C131.525916,11.8189174 131,12.3448329 131,12.9935826 L131,19.7765067 C131,20.4255022 131.52567,20.9511719 132.174665,20.9511719 L133.232143,20.9511719 L133.232143,11.8300781 L132.174665,11.8189174 Z M138.094866,6.01702009 C137.037946,6.17047991 136.921875,7.08398437 136.921875,8.22851562 L136.921875,9.26199777 C136.921875,10.5884487 135.808594,11.718471 134.517857,11.8429129 L134.348214,11.8412388 L134.348214,20.9511719 L143.547991,20.9511719 C144.408653,20.9511719 145.1477,20.3391785 145.308036,19.4935826 L146.59375,12.7106585 C146.692957,12.1865422 146.553419,11.6454797 146.213109,11.234713 C145.8728,10.8239463 145.367128,10.5862159 144.833705,10.5862165 L140.163504,10.6157924 C140.382813,9.84402902 140.493862,9.15820312 140.493862,8.55440848 C140.493862,7.1844308 139.293527,5.84291295 138.094866,6.01702009 Z" id="点赞"></path>
            </g>
        </g>
    </g>
</svg>