<?xml version="1.0" encoding="UTF-8"?>
<svg width="28px" height="28px" viewBox="0 0 28 28" version="1.1" xmlns="http://www.w3.org/2000/svg" xmlns:xlink="http://www.w3.org/1999/xlink">
    <title>爱心</title>
    <g id="思维导图" stroke="none" stroke-width="1" fill="none" fill-rule="evenodd">
        <g id="图标属性" transform="translate(-1538.000000, -485.000000)" fill="#9D9DA0">
            <g id="编组-24" transform="translate(1538.000000, 485.000000)">
                <path d="M14,0 C21.7319865,0 28,6.2680135 28,14 C28,21.7319865 21.7319865,28 14,28 C6.2680135,28 0,21.7319865 0,14 C0,6.2680135 6.2680135,0 14,0 Z M17.0090726,7 C15.8822581,7 15.1181452,7.39395162 14.0645161,8.28709677 C13.0110887,7.39375 12.2467742,7 11.1199597,7 C7.99979839,7 6,9.50201614 6,12.8693548 C6,15.4824597 8.36451614,18.3602823 13.0231855,21.5939516 C13.6496286,22.027783 14.4794037,22.027783 15.1058468,21.5939516 C19.7645161,18.3602823 22.1290323,15.4824597 22.1290323,12.8693548 C22.1290323,9.50201614 20.1292339,7 17.0090726,7 Z" id="爱心"></path>
            </g>
        </g>
    </g>
</svg>