<?xml version="1.0" encoding="UTF-8"?>
<svg width="28px" height="28px" viewBox="0 0 28 28" version="1.1" xmlns="http://www.w3.org/2000/svg" xmlns:xlink="http://www.w3.org/1999/xlink">
    <title>消息</title>
    <g id="思维导图" stroke="none" stroke-width="1" fill="none" fill-rule="evenodd">
        <g id="图标属性" transform="translate(-1705.000000, -485.000000)" fill="#9D9DA0">
            <g id="编组-24" transform="translate(1538.000000, 485.000000)">
                <path d="M181,0 C188.731986,0 195,6.2680135 195,14 C195,21.7319865 188.731986,28 181,28 C173.268014,28 167,21.7319865 167,14 C167,6.2680135 173.268014,0 181,0 Z M184.877122,7.00285266 L177.654265,7.00285266 C175.637645,7.00285266 174.002853,8.63764545 174.002853,10.6542645 L174.002853,10.6542645 L174.002853,15.2185294 C174.002853,17.2351485 175.637645,18.8699413 177.654265,18.8699413 L177.654265,18.8699413 L181.826733,18.8699413 L183.791192,21.9692597 L185.312736,18.8414603 C187.146759,18.6210879 188.527318,17.0657443 188.528534,15.2185294 L188.528534,15.2185294 L188.528534,12.2316745 L188.6085,12.0695518 L188.528534,12.0742986 L188.528534,10.6542645 C188.528534,8.63764545 186.893741,7.00285266 184.877122,7.00285266 L184.877122,7.00285266 Z M177.654265,12.1148293 C177.944789,12.1148293 178.223414,12.2302397 178.428846,12.4356714 C178.634278,12.6411032 178.749688,12.9197285 178.749688,13.2102529 C178.749688,13.8152386 178.25925,14.3056764 177.654265,14.3056764 C177.049279,14.3056764 176.558841,13.8152386 176.558841,13.2102529 C176.558841,12.6052671 177.049279,12.1148293 177.654265,12.1148293 Z M181.305676,12.1148293 C181.596201,12.1148293 181.874826,12.2302397 182.080258,12.4356714 C182.28569,12.6411032 182.4011,12.9197285 182.4011,13.2102529 C182.4011,13.8152386 181.910662,14.3056764 181.305676,14.3056764 C180.700691,14.3056764 180.210253,13.8152386 180.210253,13.2102529 C180.210253,12.6052671 180.700691,12.1148293 181.305676,12.1148293 Z M184.957088,12.1148293 C185.247613,12.1148293 185.526238,12.2302397 185.73167,12.4356714 C185.937102,12.6411032 186.052512,12.9197285 186.052512,13.2102529 C186.052512,13.6533103 185.78562,14.0527415 185.376289,14.2222923 C184.966957,14.391843 184.495796,14.2981232 184.182507,13.9848343 C183.869218,13.6715453 183.775498,13.2003841 183.945049,12.7910524 C184.1146,12.3817207 184.514031,12.1148293 184.957088,12.1148293 Z" id="消息"></path>
            </g>
        </g>
    </g>
</svg>