<?xml version="1.0" encoding="UTF-8"?>
<svg width="28px" height="28px" viewBox="0 0 28 28" version="1.1" xmlns="http://www.w3.org/2000/svg" xmlns:xlink="http://www.w3.org/1999/xlink">
    <title>形状结合</title>
    <g id="思维导图" stroke="none" stroke-width="1" fill="none" fill-rule="evenodd">
        <g id="图标属性" transform="translate(-1788.000000, -485.000000)" fill="#9D9DA0">
            <g id="编组-24" transform="translate(1538.000000, 485.000000)">
                <path d="M264,0 C271.731986,0 278,6.2680135 278,14 C278,21.7319865 271.731986,28 264,28 C256.268014,28 250,21.7319865 250,14 C250,6.2680135 256.268014,0 264,0 Z M271.81942,8.39257813 C271.302455,7.87293527 270.465402,7.87293527 269.949777,8.39257813 L269.949777,8.39257813 L261.630134,16.7457031 L257.276116,12.3742746 C256.760491,11.855971 255.923438,11.855971 255.406473,12.3742746 C254.890848,12.8925781 254.890848,13.7336496 255.406473,14.2519531 L255.406473,14.2519531 L260.695313,19.562221 C260.953795,19.8207031 261.291295,19.9506138 261.630134,19.9506138 C261.967634,19.9506138 262.306473,19.8207031 262.564955,19.562221 L262.564955,19.562221 L271.81942,10.2689174 C272.335045,9.75061384 272.335045,8.9108817 271.81942,8.39257813 Z" id="形状结合"></path>
            </g>
        </g>
    </g>
</svg>