<?xml version="1.0" encoding="UTF-8"?>
<svg width="28px" height="28px" viewBox="0 0 28 28" version="1.1" xmlns="http://www.w3.org/2000/svg" xmlns:xlink="http://www.w3.org/1999/xlink">
    <title>队员</title>
    <g id="思维导图" stroke="none" stroke-width="1" fill="none" fill-rule="evenodd">
        <g id="图标属性" transform="translate(-1746.000000, -485.000000)" fill="#9D9DA0">
            <g id="编组-24" transform="translate(1538.000000, 485.000000)">
                <path d="M222,0 C229.731986,0 236,6.2680135 236,14 C236,21.7319865 229.731986,28 222,28 C214.268014,28 208,21.7319865 208,14 C208,6.2680135 214.268014,0 222,0 Z M221.876208,15.4739449 L219.685486,15.4739449 L219.42289,15.4807426 C218.631041,15.5216253 217.810486,15.7477851 217.1726,16.1827078 C215.88394,17.0525532 215.014095,18.5345119 215.014095,20.2097696 L215.014095,20.2097696 L215.014095,20.4997181 L215.02009,20.6285939 C215.139545,21.8775927 217.030475,21.9461982 219.471783,21.9493247 L219.471783,21.9493247 L222.396596,21.9491064 C224.799855,21.9437973 226.612033,21.8588515 226.612033,20.4997181 L226.612033,20.4997181 L226.612033,20.2097696 L226.605949,19.9718108 C226.525173,18.3948341 225.647072,17.0126661 224.389095,16.2149243 C223.680332,15.6994604 222.746053,15.4739449 221.876208,15.4739449 L221.876208,15.4739449 Z M224.840126,9.15951192 C225.420023,9.77162532 225.581105,10.7703367 225.452239,11.640182 C225.25894,13.0577078 224.421311,14.1208521 223.32595,14.6685325 C224.002497,14.7329655 224.743476,15.216213 225.291157,15.6028109 C226.515383,16.3760068 227.320796,17.761316 227.320796,19.3077078 L227.320796,19.3077078 L227.320796,19.7265222 L227.510016,19.7130927 C228.497088,19.6302072 229.124919,19.3626653 229.124919,18.6955944 L229.124919,18.6955944 L229.124919,18.4700789 L229.130284,18.3092869 C229.114336,17.1663759 228.000271,15.6818877 227.385229,15.3128624 C227.030847,15.087347 226.418734,14.6685325 225.871053,14.6040995 C226.773115,14.1530686 227.481878,13.2510068 227.481878,12.0912129 C227.481878,10.5710717 226.436278,9.26005036 225.006739,9.16502292 L225.006739,9.16502292 Z M220.684198,7.00100677 C218.590126,7.00100677 216.882651,8.74069749 216.882651,10.8025532 C216.882651,12.9610583 218.590126,14.6040995 220.684198,14.6040995 C222.77827,14.6040995 224.421311,12.9610583 224.421311,10.8025532 C224.421311,8.70848099 222.713837,7.00100677 220.684198,7.00100677 Z" id="队员"></path>
            </g>
        </g>
    </g>
</svg>